<svg width="50" height="40" viewBox="0 0 50 40" fill="none" xmlns="http://www.w3.org/2000/svg">
<path d="M21.6309 1.80077C21.6309 3.15984 21.58 3.58455 21.4271 3.53358C21.3081 3.48262 21.1722 3.22779 21.1213 2.95598C21.0533 2.59922 20.9344 2.46332 20.6966 2.46332C20.3568 2.46332 20.3568 2.59922 20.3568 15.2386C20.3568 22.2548 20.3228 27.9968 20.2718 27.9799C20.068 27.9289 19.0827 28.5744 18.9298 28.8632C18.6749 29.3389 19.1166 29.6447 20.8834 30.2393C21.7159 30.5281 22.4124 30.749 22.4294 30.749C22.4633 30.7659 22.5653 30.7999 22.6842 30.8339C22.922 30.9188 27.8826 32.2949 28.1714 32.3629C28.2734 32.3798 28.5622 32.4818 28.817 32.5837C29.0718 32.7026 29.4965 32.8385 29.7514 32.8895C30.0062 32.9574 30.295 33.0594 30.3799 33.1273C30.6517 33.3142 32.2317 33.8748 32.3846 33.8408C32.4525 33.8239 32.5035 33.8748 32.5035 33.9767C32.5035 34.0617 32.5884 34.1466 32.6904 34.1466C32.7923 34.1466 33.268 34.4354 33.7436 34.7922C34.2363 35.132 34.627 35.3868 34.644 35.3358C34.661 35.2849 34.7459 35.3188 34.8309 35.4038C34.9158 35.4887 34.8819 35.5057 34.7629 35.4377C34.644 35.3698 34.5421 35.3868 34.5421 35.4717C34.5421 35.5737 34.644 35.6756 34.7629 35.7266C35.3405 35.9474 35.8672 38.3767 35.4425 38.8014C35.3575 38.8694 35.3066 38.9883 35.3066 39.0563C35.3066 39.1242 35.0687 39.396 34.7969 39.6509C34.1344 40.2624 34.593 40.0246 35.5274 39.2941C35.9181 38.9713 36.19 38.6316 36.139 38.5296C36.071 38.4107 36.105 38.3937 36.2069 38.4617C36.6656 38.7505 36.9544 37.0347 36.5637 36.3042C36.2069 35.6756 35.1707 34.6393 34.9328 34.7242C34.8139 34.7752 34.678 34.7242 34.61 34.6223C34.5251 34.5034 34.5761 34.4864 34.712 34.5713C34.8649 34.6733 34.8988 34.6393 34.8139 34.5034C34.729 34.3845 34.644 34.3335 34.593 34.3845C34.5421 34.4354 34.2873 34.3335 34.0494 34.1636C32.9961 33.4161 30.5498 32.4818 27.1521 31.5474C26.3197 31.3096 24.9097 30.9188 24.0433 30.664C23.1769 30.4262 22.3784 30.2733 22.2765 30.3412C22.1745 30.4092 22.1406 30.3922 22.2085 30.2733C22.2765 30.1714 22.0896 30.0015 21.7668 29.8995C21.461 29.7806 21.0703 29.5088 20.9004 29.288C20.5946 28.8802 20.5946 28.8463 20.9344 28.3196C21.1213 28.0138 21.2911 27.8439 21.2911 27.9459C21.2911 28.0308 21.3591 28.0138 21.444 27.8949C21.58 27.6741 23.041 27.6571 32.2487 27.759L33.268 27.776L33.3189 24.3274L33.3699 20.8957H32.5035H31.6541V15.7992V10.7027H30.5498C29.4795 10.7027 29.4456 10.6857 29.4456 10.278C29.4456 10.0401 29.3776 9.85326 29.2757 9.85326C29.1907 9.85326 29.1058 10.0401 29.1058 10.278C29.1058 10.6857 29.0548 10.7027 28.1714 10.7027C27.407 10.7027 27.2371 10.7536 27.2201 10.9915C27.2201 11.1614 27.2031 14.661 27.1861 18.7722L27.1521 26.247H26.6425H26.1328L26.0819 14.0494L26.0479 1.85173L25.2325 1.9027L24.434 1.95367L24.383 2.75212L24.3321 3.56756H23.1429H21.9707V1.78378C21.9707 0.713512 21.9027 0 21.8008 0C21.6989 0 21.6309 0.713512 21.6309 1.80077Z" fill="white"/>
<path d="M16.5697 12.0108C16.2469 12.1467 16.2809 27.9629 16.6207 28.0818C17.0624 28.2686 17.7929 27.9459 17.8948 27.5042C17.9458 27.2833 18.0137 23.7837 18.0477 19.7405C18.0817 14.1683 18.0477 12.3335 17.8948 12.1467C17.6909 11.8918 17.0114 11.8239 16.5697 12.0108Z" fill="white"/>
<path d="M37.0912 13.3359C37.0063 13.7945 36.9383 13.8455 36.2588 13.8965C35.6982 13.9474 35.5113 14.0324 35.4434 14.2872C35.3924 14.4911 35.2055 14.61 34.9507 14.61H34.543V21.2354C34.543 26.3829 34.5939 27.8949 34.7638 27.9459C35.1546 28.0987 41.5762 28.6933 41.746 28.5914C41.831 28.5404 41.848 28.5744 41.797 28.6594C41.7291 28.7613 41.865 28.8462 42.1538 28.8292C42.6124 28.8292 43.8866 29.0331 44.0565 29.135C44.1074 29.169 44.4982 29.237 44.9059 29.2879C45.3306 29.3559 46.18 29.4748 46.8086 29.5767C47.4371 29.6787 48.0487 29.6957 48.1507 29.6277C48.2696 29.5598 48.3036 29.5767 48.2526 29.6787C48.0997 29.9165 48.6263 30.0524 49.051 29.8995C49.2889 29.8316 49.3229 29.7466 49.1869 29.6617C49.068 29.5937 48.9151 29.5937 48.8132 29.6447C48.7283 29.6957 48.6433 29.6787 48.6433 29.5937C48.6433 29.4578 48.0997 29.135 47.7599 29.0671C47.675 29.0671 47.1823 28.8292 46.6557 28.5574C46.129 28.2856 45.6194 28.0987 45.5514 28.1327C45.4835 28.1837 45.4155 28.1497 45.4155 28.0478C45.4155 27.9628 45.1777 27.8439 44.9059 27.776C44.6171 27.708 44.1584 27.5551 43.8866 27.4022C43.3939 27.1644 43.3769 27.1304 43.3769 25.8903V24.6331H42.6294C41.848 24.6331 41.6781 24.4632 41.6781 23.7157C41.6781 22.9173 40.4719 22.4246 39.9792 23.0192C39.8603 23.1551 39.5036 23.2741 39.1978 23.2741H38.6202V18.942V14.61H37.9576H37.2781L37.2271 13.7096C37.1762 13.047 37.1422 12.9451 37.0912 13.3359Z" fill="white"/>
<path d="M12.8134 15.2386C12.7964 15.9521 12.7794 15.9691 12.2188 15.9691C11.7601 15.9691 11.6072 16.054 11.5223 16.3428C11.4543 16.5297 11.4203 18.0417 11.4543 19.6895L11.5223 22.6795L9.90837 22.7644L8.29448 22.8494L8.24351 23.7328L8.19255 24.6162L7.30915 24.6671L6.42576 24.7181L6.40877 25.9582C6.39178 26.9775 6.32383 27.2663 6.03502 27.5382C5.83116 27.708 5.55935 27.8609 5.44043 27.8609C5.30452 27.8609 4.74391 28.0648 4.20028 28.3196C3.63966 28.5744 3.16399 28.7783 3.11302 28.7953C3.06206 28.7953 2.77325 28.9482 2.48445 29.1011C2.17866 29.271 1.87287 29.4069 1.80492 29.4409C1.71998 29.4578 1.686 29.5428 1.71998 29.6277C1.75395 29.7127 1.65202 29.7297 1.49913 29.6787C1.36322 29.6107 1.2443 29.6447 1.2443 29.7466C1.2443 29.8486 1.14237 29.8995 1.02345 29.8656C0.921522 29.8146 0.598743 29.8826 0.30994 30.0015C-0.369595 30.3073 0.140057 30.2903 1.14237 30.0015C1.56708 29.8656 1.99179 29.7466 2.05974 29.7466C3.01109 29.6617 3.60568 29.4918 3.50375 29.3219C3.4358 29.186 3.45279 29.186 3.60568 29.3219C3.74159 29.4578 4.03039 29.4748 4.43812 29.3899C5.28753 29.203 6.25587 29.0501 7.32614 28.9312C7.80181 28.8802 8.20954 28.7953 8.20954 28.7273C8.20954 28.6764 8.65123 28.6084 9.19486 28.5914C10.1632 28.5575 13.6118 28.2177 14.2234 28.0988C14.3933 28.0648 14.5802 27.9968 14.6481 27.9289C14.801 27.776 14.9369 16.9204 14.784 16.1559C14.6481 15.4934 14.6311 15.4764 13.8497 15.4254C13.1701 15.3745 13.0512 15.3065 12.9493 14.9498C12.8474 14.61 12.8304 14.661 12.8134 15.2386ZM3.06206 29.1011C3.06206 29.22 2.90916 29.3389 2.72229 29.3389C2.39951 29.3729 2.39951 29.3729 2.7053 29.1351C2.89217 28.9992 3.02808 28.8802 3.04507 28.8802C3.04507 28.8802 3.06206 28.9822 3.06206 29.1011Z" fill="white"/>
<path d="M14.9541 28.7274C14.5973 28.9142 14.2745 29.169 14.2066 29.3219C14.0877 29.6277 14.8012 30.2903 15.124 30.1544C15.2599 30.1204 15.3278 30.1374 15.2769 30.2223C15.2259 30.3073 15.2938 30.4092 15.4297 30.4772C15.5657 30.5281 15.6846 30.4941 15.6846 30.4092C15.6846 30.3073 15.7695 30.2393 15.8545 30.2393C15.9564 30.2393 16.0074 30.3243 15.9904 30.4432C15.9564 30.5621 16.9417 31.0208 18.4027 31.5474C19.7618 32.0401 21.1039 32.5327 21.3757 32.6517C21.6645 32.7536 21.9193 32.8215 21.9533 32.8046C21.9873 32.7876 22.0722 32.8385 22.1232 32.9235C22.1741 33.0084 22.5479 33.2802 22.9556 33.5351C23.771 34.0447 24.2467 34.4864 24.5015 34.9621C24.7394 35.4208 24.7734 36.6779 24.5525 37.2215C24.3656 37.6972 23.3463 38.8015 22.6498 39.2941C22.412 39.464 22.5309 39.43 22.9046 39.2262C24.5865 38.2748 25.7077 36.9497 25.7077 35.8795C25.7077 35.4887 25.5888 34.9621 25.4359 34.7412C25.0961 34.2316 23.1934 32.9235 22.9726 33.0594C22.8876 33.1104 22.8197 33.0764 22.8197 33.0084C22.8197 32.9235 22.5309 32.7366 22.1911 32.5837C20.5602 31.9212 19.6938 31.5984 19.507 31.5984C19.388 31.5984 18.7595 31.3775 18.0969 31.1057C17.4344 30.8339 16.8568 30.647 16.8058 30.715C16.7548 30.766 16.7039 30.732 16.7039 30.647C16.7039 30.5621 16.4321 30.3412 16.1093 30.1714C15.3958 29.7806 15.3108 29.186 15.9054 28.6934C16.2622 28.4046 16.2622 28.3876 15.9394 28.3876C15.7525 28.4046 15.3108 28.5575 14.9541 28.7274ZM15.2599 29.22C15.3108 29.3219 15.2429 29.3389 15.107 29.288C14.8012 29.169 14.7502 29.0501 14.9881 29.0501C15.09 29.0501 15.2089 29.1181 15.2599 29.22Z" fill="white"/>
</svg>
